
<svg width="180px" height="180px" viewBox="0 0 180 180" version="1.1" xmlns="http://www.w3.org/2000/svg" xmlns:xlink="http://www.w3.org/1999/xlink">
    <!-- Generator: Sketch 46.2 (44496) - http://www.bohemiancoding.com/sketch -->
    <desc>Created with Sketch.</desc>
    <defs>
        <linearGradient x1="15.2605442%" y1="51.6101526%" x2="96.4915795%" y2="51.6101526%" id="linearGradient-1">
            <stop stop-color="#50A5E0" offset="0%"></stop>
            <stop stop-color="#F0656F" offset="53.8982781%"></stop>
            <stop stop-color="#F0606F" offset="100%"></stop>
        </linearGradient>
    </defs>
    <g id="Page-1" stroke="none" stroke-width="1" fill="none" fill-rule="evenodd">
        <g id="T11aVgXc4eXXXXXXXX" transform="translate(90.000000, 90.000000) rotate(-90.000000) translate(-90.000000, -90.000000) " fill-rule="nonzero">
            <g id="Group">
                <path d="M95.6667538,2.50653595 L130.430109,37.2698911 C133.694031,40.5338126 133.694031,45.8236166 130.430109,49.0857516 L130.430109,49.0857516 C127.166187,52.3496732 121.876383,52.3496732 118.614248,49.0857516 L95.6667538,26.1400436 C92.4028322,22.876122 87.1130283,22.876122 83.8508932,26.1400436 L26.1400436,83.8508932 C22.876122,87.1148148 22.876122,92.4046187 26.1400436,95.6667538 L83.8508932,153.377603 C87.1148148,156.641525 92.4046187,156.641525 95.6667538,153.377603 L118.614248,130.430109 C121.87817,127.166187 127.167974,127.166187 130.430109,130.430109 L130.430109,130.430109 C133.694031,133.694031 133.694031,138.983834 130.430109,142.245969 L95.6667538,177.009325 C92.4028322,180.273246 87.1130283,180.273246 83.8508932,177.009325 L2.50653595,95.6667538 C-0.757385621,92.4028322 -0.757385621,87.1130283 2.50653595,83.8508932 L83.8491068,2.50832244 C87.1130283,-0.755599129 92.4046187,-0.755599129 95.6667538,2.50653595 L95.6667538,2.50653595 Z" id="Shape" fill="#3AB982"></path>
                <path d="M45.8094095,56.1707518 L45.8094095,56.1707518 C49.6887284,52.3715193 55.9759006,52.3715193 59.8530962,56.1707518 L87.1272354,82.8818307 C91.0065544,86.6810632 91.0065544,92.83844 87.1272354,96.635593 L59.8530962,123.346672 C55.9737772,127.145904 49.6866051,127.145904 45.8094095,123.346672 L45.8094095,123.346672 C41.9300905,119.547439 41.9300905,113.390063 45.8094095,109.59291 L59.0377385,96.6376725 C62.9170575,92.83844 62.9170575,86.6810632 59.0377385,82.8839102 L45.8094095,69.928673 C41.9300905,66.1273611 41.9300905,59.9699843 45.8094095,56.1707518 L45.8094095,56.1707518 Z" id="Shape" fill="#34495F" transform="translate(66.468322, 89.758712) rotate(-180.000000) translate(-66.468322, -89.758712) "></path>
            </g>
            <path d="M154,116 C168.359414,116 180,104.359414 180,90 C180,75.640586 168.359414,64 154,64 C139.640586,64 128,75.640586 128,90 C128,104.359414 139.640586,116 154,116 L154,116 Z M154.490566,104.226415 C146.904538,104.226415 140.754717,98.0765941 140.754717,90.490566 C140.754717,82.904538 146.904538,76.754717 154.490566,76.754717 C162.076594,76.754717 168.226415,82.904538 168.226415,90.490566 C168.226415,98.0765941 162.076594,104.226415 154.490566,104.226415 L154.490566,104.226415 Z" id="Shape" fill="url(#linearGradient-1)"></path>
        </g>
    </g>
</svg>